<svg xmlns="http://www.w3.org/2000/svg" version="1.1" xmlns:xlink="http://www.w3.org/1999/xlink" xmlns:svgjs="http://svgjs.dev/svgjs" width="1500" height="1687" viewBox="0 0 1500 1687"><g transform="matrix(1,0,0,1,0.00011015625000254659,0)"><svg viewBox="0 0 320 360" data-background-color="#ffffff" preserveAspectRatio="xMidYMid meet" height="1687" width="1500" xmlns="http://www.w3.org/2000/svg" xmlns:xlink="http://www.w3.org/1999/xlink"><g id="tight-bounds" transform="matrix(1,0,0,1,0.000023499999997511622,0)"><svg viewBox="0 0 320 360" height="360" width="320"><g><svg></svg></g><g><svg viewBox="0 0 320 360" height="360" width="320"><g><path transform="translate(-74.99272,-51.79039) scale(4.65793,4.65793)" d="M20.6 59.9l0.8 1-0.4-1.3c-0.1-0.6-0.8 0.1-0.4 0.3M21.5 59.3c0.3 0.5 0.6 1 0.6 1.5 0 0.7 0.6 1 1.1 1.2-0.7-0.8-1.1-3-1.7-2.7M59.9 16.9c1.7 0 3.3-0.2 5.1 0.2 4.4 1.1 8.1 3.3 10.6 6.4l7 11.2c0.3 2.8 0.9 5.9 0.8 9.3 0.7 0 0.6-1 1.4-1.2-0.8 2-1.2 4.5-1.4 7.4-0.5-1.6 0-4 0.1-5.3-0.7 1.1-1.1 0.3-1.1-0.2 0.1-0.8-0.3-0.7-0.6-1-1.1-1-1.8-2.1-2.6-3.8 0.5-1.3 0.6-3.2-1-4.2-0.5-0.3-1.1-0.8-1.4-1.6-0.4-1.1-1.1-2.4-0.9-4.1 0.1-0.5-1.5 1.1-2.4 0.4-3.9-2.7-7.8-5.8-12.5-8.4-2.5 0-4.3-0.9-5.2-2-0.8-1-0.2-2.3 1-2.4 0.7 0 1.5-0.2 2.1 0.2 0.1-0.4 0.5-0.9 1-0.9M50 14.6l0.2 0.1c1 0.2 1.5 1.6 2.6 1.1 0 0.7 0.1 1.4-0.1 1.9-0.3 0.8-1.2 0.8-1.9 0.8-6.7-0.4-10.6 2.4-14.7 4.8-1.1 0.7-2.3 1.2-3.2 2.1-4.3 4-9 7.7-10.1 15.1l-0.9 8.2c-0.1 0.9-1.1 1.8-0.9 2.9l0.7 4.9c-0.7-0.7-1.1 0.2-0.9 0.6 0.1 0.3 0.5 1.3 1.1 0.4 0.8 1.5 1.6 4.4 2.7 5.7 3.4 4 7.8 7.6 11.4 11.2 0.9-0.2 1.6-0.2 1.8-0.8 0.3 0.6-0.3 1.2-0.8 1.3 1.6 1 3.4 1.9 5.8 2.1 3.1 0.2 6 0.7 8.7 1.4 1.4-0.4 2.8-0.6 4.3-0.7 0.5 0 0.8-0.8 1.4-1l0.1-1c0.6 0.9 0.5-0.3 0.1-0.9 0.7 0.6 0.9 1.1 1.2 1.5 0-0.3 0.8-1.4 0.8-0.1l0.2-1.3c0.3-0.2 0.4 1.1 0.7 0.2 0.3-0.9 0.9-0.2 1.5-0.5-0.2 0.4-0.1 1.2 0.6 0.7l0.8-0.7c0.5 1.2 1.3 0.7 1.7 0.5 4.4-2.8 8.8-6.1 13-9.4l-0.1 1.3 0.5-1.6c0.5 0.5 0.9 0.1 1.1-0.2 0.6-1 1.4-2 2.7-2.9-1.6 4.3-3.5 7.7-5.9 10.5l-1 1.2c0 0.7-0.2 1.6-1 1.7-0.4 0.1-1.2-0.2-1.8 0.4-0.3 0.4 0.7 1.2-0.1 0.6-0.7-0.5-1.4 0-2.2 0.2-0.6 0.2 0.4 0.8 0.6 1.2 0.2 0.4 0.4 0.8 0.3 1.3l-1.1-1.2c-1.3 0.7-2.1 2-3.2 3-0.5 0.4-0.3 1.1-0.3 1.7-0.7 0-1.5-0.2-1.9 0.2-0.3 0.4-0.2 1-0.2 1.6-1-0.1-1.1-1.6-2-1.3-0.9 0.2-1.9 0.3-2.7 0.8 0.6 1.2-1 0.5-0.8 0.7-1.5-0.9-2.8-1.6-4.4-1-3.4-1.1-7.6-0.6-10.7-0.2 0-0.5 0.1-1-0.1-1.1-0.2 0.5-0.8 0.3-0.7 0.3-1.9-1.3-3.8-2.1-5.8-3.2-1.8 0.2-3.5-0.7-4-1.2-1.4-1.3-3-0.6-4.3-0.9-2.8-0.7-3.8-3.6-4.1-5.6-0.2-1-1-1.4-1.3-1.3-1.3-4.2-3.3-8-4.9-11.9-0.4-1-0.3-2-0.3-3.1 0.5 0.2 1 0.1 0.9-0.6-0.5-3.3-1.7-5.8-3-8.2 0.7-3.4 0.8-7.4 2.4-10.4 1.4-2.7 4-4.1 5.8-6.4 0.6-0.8 0.6-1.9 1.2-2.6 2-2 4-4.1 6.2-5.9 1-0.8 2.2 0 3.7-0.3 0.5-1.8 2.5-3.4 4.4-2.9 0.8 0.2 2.4-1.9 2.9-2.1 0.8-0.3 0.4 0.8 0.4 1.5 1.9-1.5 4.5-2.3 6.9-3.2" fill="#000000" fill-rule="nonzero" stroke="none" stroke-width="1" stroke-linecap="butt" stroke-linejoin="miter" stroke-miterlimit="10" stroke-dasharray="" stroke-dashoffset="0" font-family="none" font-weight="none" font-size="none" text-anchor="none" style="mix-blend-mode: normal" data-fill-palette-color="tertiary"></path></g><g transform="matrix(1,0,0,1,66.243745280338,90)"><svg viewBox="0 0 187.512509439324 180" height="180" width="187.512509439324"><g><svg viewBox="0 0 192 184.30770354114992" height="180" width="187.512509439324"><g transform="matrix(1,0,0,1,0,111.98041572075378)"><svg viewBox="0 0 192 72.32728782039612" height="72.32728782039612" width="192"><g id="textblocktransform"><svg viewBox="0 0 192 72.32728782039612" height="72.32728782039612" width="192" id="textblock"><g><svg viewBox="0 0 192 50.933190807055055" height="50.933190807055055" width="192"><g transform="matrix(1,0,0,1,0,0)"><svg width="192" viewBox="1.59 -35.4 137.03 36.35" height="50.933190807055055" data-palette-color="#264f0b"><path d="M18.24-34.96L18.24-34.96Q22.09-34.96 25-34.03 27.91-33.11 29.53-30.97 31.15-28.83 31.15-25.15L31.15-25.15Q31.15-23.93 30.57-22.25 29.98-20.58 28.54-19.19 27.1-17.8 24.54-17.46L24.54-17.46Q28.69-17.04 30.37-14.81 32.06-12.57 32.06-9.3L32.06-9.3Q32.06-5.42 30.09-3.31 28.13-1.2 24.78-0.38 21.44 0.44 17.29 0.44L17.29 0.44Q12.5 0.44 8.2-0.05L8.2-0.05Q7.1-0.17 6.7-0.63 6.3-1.1 6.3-2.15L6.3-2.15 6.3-31.05 1.59-30.69 1.59-32.86Q3.1-33.5 5.77-33.95 8.45-34.4 11.71-34.67 14.97-34.94 18.24-34.96ZM18.19-31.59L18.19-31.59Q15.65-31.59 13.93-31.47 12.21-31.35 12.21-31.3L12.21-31.3 12.21-19.04Q13.35-18.82 14.31-18.74 15.26-18.65 16.04-18.65L16.04-18.65Q19.56-18.65 21.63-19.56 23.71-20.46 24.62-21.96 25.54-23.46 25.54-25.24L25.54-25.24Q25.54-28.17 23.83-29.87 22.12-31.57 18.19-31.59ZM19.04-15.6L19.04-15.6Q18.29-15.65 17.58-15.65 16.87-15.65 16.19-15.65L16.19-15.65Q14.5-15.65 13.35-15.6 12.21-15.55 12.21-15.55L12.21-15.55 12.21-3.49Q12.21-3.49 13.75-3.1 15.28-2.71 18.04-2.71L18.04-2.71Q21.51-2.71 23.27-3.67 25.02-4.64 25.63-6.08 26.25-7.52 26.25-8.91L26.25-8.91Q26.25-11.79 24.65-13.59 23.05-15.38 19.04-15.6ZM47.36-33.69L47.36-3.44 51.78-3.44Q55.05-3.44 58.36-3.89 61.67-4.35 64.82-5.35L64.82-5.35Q64.79-5.35 65.06-4.47 65.33-3.59 65.33-2.59L65.33-2.59Q65.33-1.15 64.32-0.55 63.3 0.05 60.9 0.17 58.49 0.29 54.32 0.29L54.32 0.29Q52.1 0.29 49.92 0.24 47.75 0.2 46.05 0.13 44.36 0.07 43.53 0L43.53 0Q42.4-0.12 42.01-0.59 41.62-1.05 41.62-2.1L41.62-2.1 41.62-31.91 36.91-31.91 36.91-33.84Q37.67-34.23 39.72-34.59 41.77-34.96 44.16-34.96L44.16-34.96Q46.04-34.96 46.7-34.8 47.36-34.64 47.36-33.69L47.36-33.69ZM101.46-17.21L101.46-17.21Q101.46-11.84 99.49-7.74 97.53-3.64 93.84-1.34 90.16 0.95 85 0.95L85 0.95Q79.85 0.95 76.15-1.34 72.46-3.64 70.48-7.74 68.5-11.84 68.5-17.21L68.5-17.21Q68.5-22.58 70.48-26.68 72.46-30.79 76.15-33.09 79.85-35.4 85-35.4L85-35.4Q90.16-35.4 93.84-33.09 97.53-30.79 99.49-26.68 101.46-22.58 101.46-17.21ZM74.85-17.21L74.85-17.21Q74.85-12.82 75.84-9.41 76.83-6.01 79.06-4.08 81.29-2.15 85-2.15L85-2.15Q88.69-2.15 90.9-4.09 93.11-6.03 94.11-9.44 95.11-12.84 95.11-17.21L95.11-17.21Q95.11-21.36 94.14-24.78 93.16-28.2 90.95-30.25 88.74-32.3 85-32.3L85-32.3Q82.22-32.3 80.28-31.09 78.34-29.88 77.14-27.77 75.95-25.66 75.4-22.94 74.85-20.21 74.85-17.21ZM114.01-17.14L114.01-17.14Q114.01-12.35 115.68-9.08 117.35-5.81 120.04-4.13 122.72-2.44 125.7-2.44L125.7-2.44Q127.78-2.44 129.66-2.8 131.54-3.15 133.07-4L133.07-4 133.07-13.35 128.02-13.35 128.02-15.31Q128.53-15.55 129.78-15.81 131.02-16.06 132.52-16.24 134.03-16.41 135.27-16.41L135.27-16.41Q137.25-16.41 137.93-16.25 138.62-16.09 138.62-15.16L138.62-15.16 138.62-3.39Q137.27-2 135.04-1.03 132.81-0.05 130.23 0.45 127.65 0.95 125.26 0.95L125.26 0.95Q120.16 0.95 116.18-1.22 112.2-3.39 109.93-7.42 107.66-11.45 107.66-17.04L107.66-17.04Q107.66-22.73 110.03-26.84 112.39-30.96 116.7-33.18 121.01-35.4 126.87-35.4L126.87-35.4Q128.12-35.4 129.77-35.23 131.41-35.06 132.96-34.69 134.51-34.33 135.54-33.74 136.56-33.15 136.56-32.3L136.56-32.3Q136.56-31.86 136.27-31.35L136.27-31.35 134.22-27.91Q133.15-28.52 131.44-29.53 129.73-30.54 127.68-31.37 125.63-32.2 123.55-32.2L123.55-32.2Q120.94-32.2 119.11-30.93 117.28-29.66 116.15-27.51 115.03-25.37 114.52-22.67 114.01-19.97 114.01-17.14Z" opacity="1" transform="matrix(1,0,0,1,0,0)" fill="#264f0b" class="wordmark-text-0" data-fill-palette-color="primary" id="text-0"></path></svg></g></svg></g><g transform="matrix(1,0,0,1,35.519999999999996,62.957294760021384)"><svg viewBox="0 0 120.96000000000001 9.36999306037474" height="9.36999306037474" width="120.96000000000001"><g transform="matrix(1,0,0,1,0,0)"><svg width="120.96000000000001" viewBox="2.5 -39.2 578.29 44.85" height="9.36999306037474" data-palette-color="#000000"><path d="M16.6-37.5Q22.2-37.5 26.35-35.23 30.5-32.95 32.77-28.65 35.05-24.35 35.05-18.45L35.05-18.45Q35.05-12.8 32.63-8.63 30.2-4.45 25.88-2.23 21.55 0 16 0L16 0 2.5 0 2.5-0.95Q2.85-0.95 3.23-1.1 3.6-1.25 3.6-1.5L3.6-1.5 3.6-36Q3.6-36.25 3.23-36.4 2.85-36.55 2.5-36.55L2.5-36.55 2.5-37.5 16.6-37.5ZM10.15-5.9L15.05-5.9Q19.4-5.9 22.48-7.48 25.55-9.05 27.13-11.9 28.7-14.75 28.7-18.55L28.7-18.55Q28.7-24.5 25.5-28.05 22.3-31.6 15.65-31.6L15.65-31.6 10.15-31.6 10.15-5.9ZM43.9-27.2Q42.3-27.2 41.17-28.3 40.05-29.4 40.05-31.05L40.05-31.05Q40.05-32.6 41.17-33.73 42.3-34.85 43.9-34.85L43.9-34.85Q45.5-34.85 46.6-33.73 47.7-32.6 47.7-31.05L47.7-31.05Q47.7-29.4 46.6-28.3 45.5-27.2 43.9-27.2L43.9-27.2ZM40.65-21.5Q40.65-21.75 40.27-21.9 39.9-22.05 39.55-22.05L39.55-22.05 39.55-23 48.15-23 48.15-22.05Q47.8-22.05 47.42-21.9 47.05-21.75 47.05-21.5L47.05-21.5 47.05-1.5Q47.05-1.25 47.42-1.1 47.8-0.95 48.15-0.95L48.15-0.95 48.15 0 39.55 0 39.55-0.95Q39.9-0.95 40.27-1.1 40.65-1.25 40.65-1.5L40.65-1.5 40.65-21.5ZM63.15 0.75Q60.6 0.75 58.22-0.3 55.85-1.35 53.45-3.3L53.45-3.3Q53.35-3.4 53.2-3.4L53.2-3.4Q52.8-3.4 52.35-2.95L52.35-2.95 51.65-3.55 56.65-9.25 57.35-8.6Q57.15-8.35 57.02-8 56.9-7.65 57.1-7.45L57.1-7.45Q58.75-5.95 60.17-5.23 61.6-4.5 63.15-4.5L63.15-4.5Q67-4.5 67-7.05L67-7.05Q67-8.2 65.82-8.83 64.65-9.45 61.9-10.2L61.9-10.2Q58.35-11.15 56.75-12.68 55.15-14.2 55.15-16.85L55.15-16.85Q55.15-20 57.2-21.98 59.25-23.95 62.8-23.95L62.8-23.95Q64.6-23.95 66.05-23.4 67.5-22.85 69.55-21.45L69.55-21.45Q69.6-21.4 69.75-21.4L69.75-21.4Q70-21.4 70.25-21.55 70.5-21.7 70.6-21.85L70.6-21.85 71.35-21.2 66.85-16.1 66.15-16.7Q66.35-16.9 66.42-17.23 66.5-17.55 66.3-17.75L66.3-17.75Q65.4-18.45 64.57-18.8 63.75-19.15 62.75-19.15L62.75-19.15Q61.7-19.15 61.1-18.75 60.5-18.35 60.5-17.55L60.5-17.55Q60.5-16.9 60.85-16.5 61.2-16.1 62.12-15.7 63.05-15.3 64.95-14.7L64.95-14.7Q68.45-13.65 70.45-11.78 72.45-9.9 72.45-7.15L72.45-7.15Q72.45-3.1 69.9-1.18 67.35 0.75 63.15 0.75L63.15 0.75ZM87.39 1.05Q84.19 1.05 81.44-0.55 78.69-2.15 77.07-4.9 75.44-7.65 75.44-10.9L75.44-10.9Q75.44-14.75 77.07-17.68 78.69-20.6 81.44-22.18 84.19-23.75 87.49-23.75L87.49-23.75Q89.84-23.75 91.52-23.2 93.19-22.65 94.22-21.88 95.24-21.1 96.79-19.7L96.79-19.7Q96.89-19.6 97.04-19.6L97.04-19.6Q97.24-19.6 97.52-19.75 97.79-19.9 97.94-20.05L97.94-20.05 98.59-19.35 93.19-14.35 92.54-15.05Q92.79-15.25 92.97-15.63 93.14-16 92.99-16.2L92.99-16.2Q91.19-18.4 88.04-18.4L88.04-18.4Q85.19-18.4 83.27-16.5 81.34-14.6 81.34-11.55L81.34-11.55Q81.34-8.4 83.19-6.5 85.04-4.6 88.04-4.6L88.04-4.6Q89.54-4.6 90.49-4.98 91.44-5.35 92.64-6.4L92.64-6.4Q92.74-6.5 92.74-6.65L92.74-6.65Q92.74-6.95 92.39-7.3L92.39-7.3 92.99-8.05 98.39-3.55 97.79-2.85Q96.99-3.3 96.69-3L96.69-3Q94.84-0.95 92.82 0.05 90.79 1.05 87.39 1.05L87.39 1.05ZM113.59 0.6Q109.89 0.6 107.07-0.98 104.24-2.55 102.67-5.3 101.09-8.05 101.09-11.5L101.09-11.5Q101.09-14.9 102.67-17.7 104.24-20.5 107.09-22.13 109.94-23.75 113.59-23.75L113.59-23.75Q117.09-23.75 119.94-22.18 122.79-20.6 124.44-17.82 126.09-15.05 126.09-11.5L126.09-11.5Q126.09-8.4 124.62-5.63 123.14-2.85 120.29-1.13 117.44 0.6 113.59 0.6L113.59 0.6ZM113.59-5.15Q116.54-5.15 118.37-6.88 120.19-8.6 120.19-11.35L120.19-11.35Q120.19-14.2 118.37-16.05 116.54-17.9 113.59-17.9L113.59-17.9Q110.84-17.9 108.99-16.07 107.14-14.25 107.14-11.5L107.14-11.5Q107.14-8.6 108.99-6.88 110.84-5.15 113.59-5.15L113.59-5.15ZM156.54-23L156.54-22.05Q155.54-22.05 155.29-21.65L155.29-21.65 146.24-2.25Q146.09-1.9 146.09-1.65L146.09-1.65Q146.09-1.25 146.41-1.1 146.74-0.95 147.09-0.95L147.09-0.95 147.09 0 136.99 0 136.99-0.95Q137.34-0.95 137.69-1.13 138.04-1.3 138.04-1.75L138.04-1.75Q138.04-2 137.89-2.3L137.89-2.3 129.54-21.6Q129.39-22.05 128.34-22.05L128.34-22.05 128.34-23 137.04-23 137.04-22.05Q136.44-22.05 136.26-21.78 136.09-21.5 136.24-21.15L136.24-21.15 142.39-6.8 148.89-21.2Q148.94-21.25 148.94-21.35L148.94-21.35Q148.94-21.6 148.56-21.83 148.19-22.05 147.64-22.05L147.64-22.05 147.64-23 156.54-23ZM170.99-24.05Q174.84-24.05 177.64-22.38 180.44-20.7 181.89-17.85 183.34-15 183.34-11.55L183.34-11.55Q183.34-10.5 183.19-9.45L183.19-9.45 164.89-9.45Q165.09-7.05 166.99-5.7 168.89-4.35 171.54-4.35L171.54-4.35Q173.34-4.35 174.56-4.85 175.79-5.35 176.74-6.35L176.74-6.35Q176.84-6.55 176.84-6.6L176.84-6.6Q176.84-6.8 176.69-7.03 176.54-7.25 176.39-7.35L176.39-7.35 176.99-8.1 182.54-3.75 181.99-3Q181.24-3.45 180.94-3.1L180.94-3.1Q177.44 1.1 171.54 1.1L171.54 1.1Q167.74 1.1 164.84-0.58 161.94-2.25 160.36-5.08 158.79-7.9 158.79-11.35L158.79-11.35Q158.79-15 160.34-17.9 161.89-20.8 164.66-22.43 167.44-24.05 170.99-24.05L170.99-24.05ZM164.94-14.1L177.34-14.1Q177.14-16.15 175.26-17.57 173.39-19 171.04-19L171.04-19Q168.69-19 166.99-17.57 165.29-16.15 164.94-14.1L164.94-14.1ZM201.58-24.5L202.53-24.5 202.53-16.45 201.58-16.45Q201.58-16.8 201.43-17.25 201.28-17.7 201.03-17.75L201.03-17.75 200.68-17.75Q199.13-17.75 197.56-16.88 195.98-16 194.96-14.58 193.93-13.15 193.93-11.55L193.93-11.55 193.93-1.5Q193.93-1.25 194.31-1.1 194.68-0.95 195.03-0.95L195.03-0.95 195.03 0 186.63 0 186.63-0.95Q186.98-0.95 187.36-1.1 187.73-1.25 187.73-1.5L187.73-1.5 187.73-21.5Q187.73-21.75 187.36-21.9 186.98-22.05 186.63-22.05L186.63-22.05 186.63-23 193.93-23 193.93-20.85Q195.28-22.1 197.18-22.85 199.08-23.6 200.98-23.6L200.98-23.6 201.03-23.6 201.08-23.6Q201.33-23.6 201.46-23.9 201.58-24.2 201.58-24.5L201.58-24.5ZM205.78-3.75Q205.78-5.5 207.08-6.73 208.38-7.95 210.23-7.95L210.23-7.95Q212.38-7.95 213.66-6.55 214.93-5.15 214.93-2.3L214.93-2.3Q214.93 2.05 212.36 3.85 209.78 5.65 206.03 5.65L206.03 5.65 206.03 4.35Q208.18 4 209.76 2.98 211.33 1.95 211.33 0.45L211.33 0.45Q210.88 0.55 210.08 0.55L210.08 0.55Q208.23 0.55 207.01-0.68 205.78-1.9 205.78-3.75L205.78-3.75ZM256.58-16.3L265.63-1.3Q265.83-0.95 266.98-0.95L266.98-0.95 266.98 0 256.83 0 256.83-0.95Q257.53-0.95 257.78-1.2 258.03-1.45 257.83-1.7L257.83-1.7 249.43-15.85 244.28-15.85 244.28-1.5Q244.28-1.25 244.68-1.1 245.08-0.95 245.43-0.95L245.43-0.95 245.43 0 236.43 0 236.43-0.95Q236.78-0.95 237.18-1.1 237.58-1.25 237.58-1.5L237.58-1.5 237.58-36Q237.58-36.25 237.2-36.4 236.83-36.55 236.48-36.55L236.48-36.55 236.48-37.5 251.73-37.5Q258.33-37.5 261.7-34.52 265.08-31.55 265.08-26.85L265.08-26.85Q265.08-22.5 262.7-19.85 260.33-17.2 256.58-16.3L256.58-16.3ZM252.63-31.7L244.28-31.7 244.28-21.9 252.48-21.9Q255.58-21.9 257.13-23.35 258.68-24.8 258.68-26.85L258.68-26.85Q258.68-28.85 256.93-30.28 255.18-31.7 252.63-31.7L252.63-31.7ZM281.92-24.05Q285.77-24.05 288.57-22.38 291.37-20.7 292.82-17.85 294.27-15 294.27-11.55L294.27-11.55Q294.27-10.5 294.12-9.45L294.12-9.45 275.82-9.45Q276.02-7.05 277.92-5.7 279.82-4.35 282.47-4.35L282.47-4.35Q284.27-4.35 285.5-4.85 286.72-5.35 287.67-6.35L287.67-6.35Q287.77-6.55 287.77-6.6L287.77-6.6Q287.77-6.8 287.62-7.03 287.47-7.25 287.32-7.35L287.32-7.35 287.92-8.1 293.47-3.75 292.92-3Q292.17-3.45 291.87-3.1L291.87-3.1Q288.37 1.1 282.47 1.1L282.47 1.1Q278.67 1.1 275.77-0.58 272.87-2.25 271.3-5.08 269.72-7.9 269.72-11.35L269.72-11.35Q269.72-15 271.27-17.9 272.82-20.8 275.6-22.43 278.37-24.05 281.92-24.05L281.92-24.05ZM275.87-14.1L288.27-14.1Q288.07-16.15 286.2-17.57 284.32-19 281.97-19L281.97-19Q279.62-19 277.92-17.57 276.22-16.15 275.87-14.1L275.87-14.1ZM310.82-23.85L311.77-23.85 311.77-16.5 310.82-16.5Q310.82-16.8 310.67-17.13 310.52-17.45 310.27-17.45L310.27-17.45 306.67-17.45 306.67-1.5Q306.67-1.25 307.02-1.1 307.37-0.95 307.67-0.95L307.67-0.95 307.67 0 299.92 0 299.92-0.95Q300.22-0.95 300.57-1.1 300.92-1.25 300.92-1.5L300.92-1.5 300.92-17.45 298.52-17.45Q298.27-17.45 298.12-17.13 297.97-16.8 297.97-16.5L297.97-16.5 297.02-16.5 297.02-23.85 297.97-23.85Q297.97-23.55 298.12-23.23 298.27-22.9 298.52-22.9L298.52-22.9 300.92-22.9 300.92-30.4Q300.92-33.75 303.02-35.83 305.12-37.9 308.72-38.05L308.72-38.05Q308.97-38.05 309.1-38.4 309.22-38.75 309.22-39.1L309.22-39.1 310.17-39.2 310.62-30.45 309.67-30.4Q309.67-30.8 309.5-31.18 309.32-31.55 309.02-31.55L309.02-31.55Q307.87-31.35 307.27-30.58 306.67-29.8 306.67-28.75L306.67-28.75 306.67-22.9 310.27-22.9Q310.52-22.9 310.67-23.23 310.82-23.55 310.82-23.85L310.82-23.85ZM316.47-36Q316.47-36.25 316.09-36.4 315.72-36.55 315.32-36.55L315.32-36.55 315.32-37.5 324.12-37.5 324.12-36.55Q323.72-36.55 323.34-36.4 322.97-36.25 322.97-36L322.97-36 322.97-1.5Q322.97-1.25 323.34-1.1 323.72-0.95 324.12-0.95L324.12-0.95 324.12 0 315.32 0 315.32-0.95Q315.72-0.95 316.09-1.1 316.47-1.25 316.47-1.5L316.47-1.5 316.47-36ZM340.37-24.05Q344.22-24.05 347.02-22.38 349.81-20.7 351.27-17.85 352.72-15 352.72-11.55L352.72-11.55Q352.72-10.5 352.56-9.45L352.56-9.45 334.27-9.45Q334.47-7.05 336.37-5.7 338.27-4.35 340.92-4.35L340.92-4.35Q342.72-4.35 343.94-4.85 345.17-5.35 346.12-6.35L346.12-6.35Q346.22-6.55 346.22-6.6L346.22-6.6Q346.22-6.8 346.06-7.03 345.92-7.25 345.77-7.35L345.77-7.35 346.37-8.1 351.92-3.75 351.37-3Q350.62-3.45 350.31-3.1L350.31-3.1Q346.81 1.1 340.92 1.1L340.92 1.1Q337.12 1.1 334.22-0.58 331.31-2.25 329.74-5.08 328.17-7.9 328.17-11.35L328.17-11.35Q328.17-15 329.72-17.9 331.27-20.8 334.04-22.43 336.81-24.05 340.37-24.05L340.37-24.05ZM334.31-14.1L346.72-14.1Q346.52-16.15 344.64-17.57 342.77-19 340.42-19L340.42-19Q338.06-19 336.37-17.57 334.67-16.15 334.31-14.1L334.31-14.1ZM367.91 1.05Q364.71 1.05 361.96-0.55 359.21-2.15 357.59-4.9 355.96-7.65 355.96-10.9L355.96-10.9Q355.96-14.75 357.59-17.68 359.21-20.6 361.96-22.18 364.71-23.75 368.01-23.75L368.01-23.75Q370.36-23.75 372.04-23.2 373.71-22.65 374.74-21.88 375.76-21.1 377.31-19.7L377.31-19.7Q377.41-19.6 377.56-19.6L377.56-19.6Q377.76-19.6 378.04-19.75 378.31-19.9 378.46-20.05L378.46-20.05 379.11-19.35 373.71-14.35 373.06-15.05Q373.31-15.25 373.49-15.63 373.66-16 373.51-16.2L373.51-16.2Q371.71-18.4 368.56-18.4L368.56-18.4Q365.71-18.4 363.79-16.5 361.86-14.6 361.86-11.55L361.86-11.55Q361.86-8.4 363.71-6.5 365.56-4.6 368.56-4.6L368.56-4.6Q370.06-4.6 371.01-4.98 371.96-5.35 373.16-6.4L373.16-6.4Q373.26-6.5 373.26-6.65L373.26-6.65Q373.26-6.95 372.91-7.3L372.91-7.3 373.51-8.05 378.91-3.55 378.31-2.85Q377.51-3.3 377.21-3L377.21-3Q375.36-0.95 373.34 0.05 371.31 1.05 367.91 1.05L367.91 1.05ZM394.61-24L395.56-24 395.56-16.4 394.61-16.4Q394.61-16.75 394.46-17.07 394.31-17.4 394.06-17.4L394.06-17.4 390.81-17.4 390.81-1.5Q390.81-1.25 391.16-1.1 391.51-0.95 391.86-0.95L391.86-0.95 391.86 0 383.71 0 383.71-0.95Q384.06-0.95 384.41-1.1 384.76-1.25 384.76-1.5L384.76-1.5 384.76-17.4 382.36-17.4Q382.11-17.4 381.96-17.07 381.81-16.75 381.81-16.4L381.81-16.4 380.86-16.4 380.86-24 381.81-24Q381.81-23.65 381.96-23.33 382.11-23 382.36-23L382.36-23 384.76-23 384.76-28.85Q384.76-29.1 384.41-29.25 384.06-29.4 383.71-29.4L383.71-29.4 383.71-30.35 391.86-30.35 391.86-29.4Q391.51-29.4 391.16-29.25 390.81-29.1 390.81-28.85L390.81-28.85 390.81-23 394.06-23Q394.31-23 394.46-23.33 394.61-23.65 394.61-24L394.61-24ZM399.06-3.75Q399.06-5.5 400.36-6.73 401.66-7.95 403.51-7.95L403.51-7.95Q405.66-7.95 406.93-6.55 408.21-5.15 408.21-2.3L408.21-2.3Q408.21 2.05 405.63 3.85 403.06 5.65 399.31 5.65L399.31 5.65 399.31 4.35Q401.46 4 403.03 2.98 404.61 1.95 404.61 0.45L404.61 0.45Q404.16 0.55 403.36 0.55L403.36 0.55Q401.51 0.55 400.28-0.68 399.06-1.9 399.06-3.75L399.06-3.75ZM444.95 0.95Q440.65 0.95 436.95-1.07 433.25-3.1 429.8-6.65L429.8-6.65Q429.7-6.75 429.55-6.75L429.55-6.75Q429.1-6.75 428.55-6.2L428.55-6.2 427.9-6.9 434.85-13.45 435.5-12.75Q435.2-12.5 434.95-12.05 434.7-11.6 434.85-11.4L434.85-11.4Q439.5-5.5 445-5.5L445-5.5Q446.9-5.5 448.43-6.25 449.95-7 450.8-8.18 451.65-9.35 451.65-10.6L451.65-10.6Q451.65-13.55 446.5-15.45L446.5-15.45 440.35-17.75Q436.65-19.1 434.58-21.45 432.5-23.8 432.5-27.1L432.5-27.1Q432.5-30.35 434.03-32.77 435.55-35.2 438.35-36.5 441.15-37.8 444.85-37.8L444.85-37.8Q448.35-37.8 450.73-36.73 453.1-35.65 455.8-33.45L455.8-33.45Q455.85-33.4 456-33.4L456-33.4Q456.25-33.4 456.58-33.58 456.9-33.75 457.1-33.95L457.1-33.95 457.75-33.3 451.55-27.2 450.9-27.9Q451.15-28.15 451.28-28.48 451.4-28.8 451.2-28.95L451.2-28.95Q447.95-31.55 444.75-31.55L444.75-31.55Q442.2-31.55 440.7-30.38 439.2-29.2 439.2-27.4L439.2-27.4Q439.2-25.8 440.03-24.95 440.85-24.1 442.55-23.5L442.55-23.5 448.6-21.3Q451.75-20.15 453.85-18.88 455.95-17.6 457.2-15.53 458.45-13.45 458.45-10.35L458.45-10.35Q458.45-7.35 456.88-4.78 455.3-2.2 452.23-0.63 449.15 0.95 444.95 0.95L444.95 0.95ZM487.45-13.45L487.45-1.5Q487.45-1.25 487.82-1.1 488.2-0.95 488.6-0.95L488.6-0.95 488.6 0 479.8 0 479.8-0.95Q480.2-0.95 480.57-1.1 480.95-1.25 480.95-1.5L480.95-1.5 480.95-11.9Q480.95-14.45 479.7-16.28 478.45-18.1 475.95-18.1L475.95-18.1Q473.4-18.1 471.7-16.4 470-14.7 470-11.5L470-11.5 470-1.5Q470-1.25 470.37-1.1 470.75-0.95 471.1-0.95L471.1-0.95 471.1 0 462.65 0 462.65-0.95Q463-0.95 463.37-1.1 463.75-1.25 463.75-1.5L463.75-1.5 463.75-36Q463.75-36.25 463.37-36.4 463-36.55 462.65-36.55L462.65-36.55 462.65-37.5 471.1-37.5 471.1-36.55Q470.75-36.55 470.37-36.4 470-36.25 470-36L470-36 470-20.75Q471.3-22 473.17-22.75 475.05-23.5 476.95-23.5L476.95-23.5Q480.2-23.5 482.57-22.15 484.95-20.8 486.2-18.53 487.45-16.25 487.45-13.45L487.45-13.45ZM520.25-23L520.25-22.05Q519.9-22.05 519.52-21.9 519.15-21.75 519.15-21.5L519.15-21.5 519.15-1.5Q519.15-1.25 519.52-1.1 519.9-0.95 520.25-0.95L520.25-0.95 520.25 0 512.85 0 512.85-2.75Q509.7 0.65 504.9 0.65L504.9 0.65Q501.25 0.65 498.47-0.83 495.7-2.3 494.17-5.05 492.65-7.8 492.65-11.45L492.65-11.45Q492.65-15 494.32-17.78 496-20.55 498.8-22.08 501.6-23.6 504.9-23.6L504.9-23.6Q509.7-23.6 512.85-19.9L512.85-19.9 512.85-23 520.25-23ZM505.65-4.65Q507.7-4.65 509.32-5.58 510.95-6.5 511.85-8.03 512.75-9.55 512.75-11.3L512.75-11.3Q512.75-14.3 510.77-16.25 508.8-18.2 505.65-18.2L505.65-18.2Q502.6-18.2 500.62-16.3 498.65-14.4 498.65-11.45L498.65-11.45Q498.65-8.35 500.67-6.5 502.7-4.65 505.65-4.65L505.65-4.65ZM539.29-24.5L540.25-24.5 540.25-16.45 539.29-16.45Q539.29-16.8 539.14-17.25 539-17.7 538.75-17.75L538.75-17.75 538.39-17.75Q536.84-17.75 535.27-16.88 533.69-16 532.67-14.58 531.64-13.15 531.64-11.55L531.64-11.55 531.64-1.5Q531.64-1.25 532.02-1.1 532.39-0.95 532.75-0.95L532.75-0.95 532.75 0 524.34 0 524.34-0.95Q524.69-0.95 525.07-1.1 525.44-1.25 525.44-1.5L525.44-1.5 525.44-21.5Q525.44-21.75 525.07-21.9 524.69-22.05 524.34-22.05L524.34-22.05 524.34-23 531.64-23 531.64-20.85Q533-22.1 534.89-22.85 536.79-23.6 538.69-23.6L538.69-23.6 538.75-23.6 538.79-23.6Q539.04-23.6 539.17-23.9 539.29-24.2 539.29-24.5L539.29-24.5ZM554.94-24.05Q558.79-24.05 561.59-22.38 564.39-20.7 565.84-17.85 567.29-15 567.29-11.55L567.29-11.55Q567.29-10.5 567.14-9.45L567.14-9.45 548.84-9.45Q549.04-7.05 550.94-5.7 552.84-4.35 555.49-4.35L555.49-4.35Q557.29-4.35 558.52-4.85 559.74-5.35 560.69-6.35L560.69-6.35Q560.79-6.55 560.79-6.6L560.79-6.6Q560.79-6.8 560.64-7.03 560.49-7.25 560.34-7.35L560.34-7.35 560.94-8.1 566.49-3.75 565.94-3Q565.19-3.45 564.89-3.1L564.89-3.1Q561.39 1.1 555.49 1.1L555.49 1.1Q551.69 1.1 548.79-0.58 545.89-2.25 544.32-5.08 542.74-7.9 542.74-11.35L542.74-11.35Q542.74-15 544.29-17.9 545.84-20.8 548.62-22.43 551.39-24.05 554.94-24.05L554.94-24.05ZM548.89-14.1L561.29-14.1Q561.09-16.15 559.22-17.57 557.34-19 554.99-19L554.99-19Q552.64-19 550.94-17.57 549.24-16.15 548.89-14.1L548.89-14.1ZM576.59-15.7Q574.74-15.7 573.51-16.93 572.29-18.15 572.29-20L572.29-20Q572.29-21.75 573.54-22.98 574.79-24.2 576.59-24.2L576.59-24.2Q578.34-24.2 579.56-22.98 580.79-21.75 580.79-20L580.79-20Q580.79-18.15 579.56-16.93 578.34-15.7 576.59-15.7L576.59-15.7ZM576.59 0.55Q574.74 0.55 573.51-0.68 572.29-1.9 572.29-3.75L572.29-3.75Q572.29-5.5 573.54-6.73 574.79-7.95 576.59-7.95L576.59-7.95Q578.34-7.95 579.56-6.73 580.79-5.5 580.79-3.75L580.79-3.75Q580.79-1.9 579.56-0.68 578.34 0.55 576.59 0.55L576.59 0.55Z" opacity="1" transform="matrix(1,0,0,1,0,0)" fill="#000000" class="slogan-text-1" data-fill-palette-color="secondary" id="text-1"></path></svg></g></svg></g></svg></g></svg></g><g transform="matrix(1,0,0,1,46.02184411610627,0)"><svg viewBox="0 0 99.95631176778745 99.95631176778745" height="99.95631176778745" width="99.95631176778745"><g><svg xmlns="http://www.w3.org/2000/svg" xmlns:xlink="http://www.w3.org/1999/xlink" version="1.1" x="0" y="0" viewBox="7.261 6.964 75.477 75.477" enable-background="new 0 0 90 90" xml:space="preserve" height="99.95631176778745" width="99.95631176778745" class="icon-icon-0" data-fill-palette-color="accent" id="icon-0"><g fill="#fc6c22" data-fill-palette-color="accent"><polygon points="43.583,37.298 32.386,9.106 29.752,10.152 41.15,38.849 43.583,41.282  " fill="#fc6c22" data-fill-palette-color="accent"></polygon><polygon points="46.418,52.112 57.613,80.299 60.247,79.252 48.85,50.556 46.418,48.125  " fill="#fc6c22" data-fill-palette-color="accent"></polygon><polygon points="37.596,46.119 9.403,57.317 10.45,59.951 39.146,48.554 41.58,46.119  " fill="#fc6c22" data-fill-palette-color="accent"></polygon><polygon points="52.409,43.286 80.598,32.09 79.551,29.455 50.855,40.853 48.422,43.286  " fill="#fc6c22" data-fill-palette-color="accent"></polygon><polygon points="38.762,40.468 10.91,28.452 9.788,31.053 38.139,43.286 41.579,43.286  " fill="#fc6c22" data-fill-palette-color="accent"></polygon><polygon points="51.239,48.938 79.089,60.954 80.212,58.352 51.861,46.12 48.421,46.12  " fill="#fc6c22" data-fill-palette-color="accent"></polygon><polygon points="49.236,38.463 61.252,10.613 58.649,9.49 46.418,37.841 46.418,41.281  " fill="#fc6c22" data-fill-palette-color="accent"></polygon><polygon points="40.765,50.943 28.75,78.793 31.352,79.916 43.583,51.565 43.583,48.125  " fill="#fc6c22" data-fill-palette-color="accent"></polygon><polygon points="48.85,50.556 70.683,72.39 72.687,70.386 51.239,48.938 47.579,47.359  " fill="#fc6c22" data-fill-palette-color="accent"></polygon><polygon points="41.15,38.849 19.316,17.015 17.313,19.019 38.762,40.468 42.42,42.046  " fill="#fc6c22" data-fill-palette-color="accent"></polygon><polygon points="43.583,42.548 42.42,42.046 42.913,43.286 43.583,43.286  " fill="#fc6c22" data-fill-palette-color="accent"></polygon><polygon points="46.418,46.857 47.579,47.359 47.087,46.119 46.418,46.119  " fill="#fc6c22" data-fill-palette-color="accent"></polygon><polygon points="50.855,40.853 72.688,19.02 70.684,17.016 49.236,38.463 47.657,42.123  " fill="#fc6c22" data-fill-palette-color="accent"></polygon><polygon points="39.146,48.554 17.313,70.387 19.317,72.391 40.765,50.943 42.344,47.283  " fill="#fc6c22" data-fill-palette-color="accent"></polygon><polygon points="47.155,43.286 47.657,42.123 46.418,42.615 46.418,43.286  " fill="#fc6c22" data-fill-palette-color="accent"></polygon><polygon points="42.846,46.119 42.344,47.283 43.583,46.791 43.583,46.119  " fill="#fc6c22" data-fill-palette-color="accent"></polygon><polygon points="82.738,43.286 52.409,43.286 48.704,44.757 51.861,46.12 82.738,46.12  " fill="#fc6c22" data-fill-palette-color="accent"></polygon><polygon points="38.139,43.286 7.261,43.286 7.261,46.119 37.596,46.119 41.298,44.649  " fill="#fc6c22" data-fill-palette-color="accent"></polygon><polygon points="42.475,44.182 41.298,44.649 42.522,45.177 42.997,44.703  " fill="#fc6c22" data-fill-palette-color="accent"></polygon><polygon points="47.005,44.704 47.526,45.225 48.704,44.757 47.479,44.229  " fill="#fc6c22" data-fill-palette-color="accent"></polygon><polygon points="42.913,43.286 41.579,43.286 42.475,44.182 43.16,43.909  " fill="#fc6c22" data-fill-palette-color="accent"></polygon><polygon points="47.087,46.119 48.421,46.12 47.526,45.225 46.84,45.498  " fill="#fc6c22" data-fill-palette-color="accent"></polygon><polygon points="43.583,43.741 43.16,43.909 43.339,44.36 43.583,44.116  " fill="#fc6c22" data-fill-palette-color="accent"></polygon><polygon points="46.418,45.666 46.84,45.498 46.661,45.047 46.418,45.29  " fill="#fc6c22" data-fill-palette-color="accent"></polygon><polygon points="42.522,45.177 41.58,46.119 42.846,46.119 43.138,45.443  " fill="#fc6c22" data-fill-palette-color="accent"></polygon><polygon points="47.479,44.229 48.422,43.286 47.155,43.286 46.863,43.963  " fill="#fc6c22" data-fill-palette-color="accent"></polygon><polygon points="43.318,45.025 43.138,45.443 43.583,45.635 43.583,45.29  " fill="#fc6c22" data-fill-palette-color="accent"></polygon><polygon points="46.683,44.382 46.863,43.963 46.418,43.771 46.418,44.117  " fill="#fc6c22" data-fill-palette-color="accent"></polygon><polygon points="46.534,44.727 46.661,45.047 47.005,44.704 46.683,44.382  " fill="#fc6c22" data-fill-palette-color="accent"></polygon><polygon points="43.339,44.36 42.997,44.703 43.318,45.025 43.467,44.681  " fill="#fc6c22" data-fill-palette-color="accent"></polygon><polygon points="46.418,44.996 46.534,44.727 46.418,44.435  " fill="#fc6c22" data-fill-palette-color="accent"></polygon><polygon points="43.467,44.681 43.583,44.976 43.583,44.41  " fill="#fc6c22" data-fill-palette-color="accent"></polygon><polygon points="46.418,37.841 46.418,6.964 43.583,6.964 43.583,37.298 45.054,41.001  " fill="#fc6c22" data-fill-palette-color="accent"></polygon><polygon points="43.583,51.565 43.583,82.441 46.418,82.441 46.418,52.112 44.946,48.407  " fill="#fc6c22" data-fill-palette-color="accent"></polygon><polygon points="45.521,42.178 45.054,41.001 44.526,42.225 45,42.699  " fill="#fc6c22" data-fill-palette-color="accent"></polygon><polygon points="44.479,47.229 44.946,48.407 45.475,47.182 45.001,46.707  " fill="#fc6c22" data-fill-palette-color="accent"></polygon><polygon points="44.526,42.225 43.583,41.282 43.583,42.548 44.261,42.841  " fill="#fc6c22" data-fill-palette-color="accent"></polygon><polygon points="45.475,47.182 46.418,48.125 46.418,46.857 45.741,46.565  " fill="#fc6c22" data-fill-palette-color="accent"></polygon><polygon points="45.323,46.386 45.741,46.565 45.933,46.119 45.589,46.119  " fill="#fc6c22" data-fill-palette-color="accent"></polygon><polygon points="44.679,43.021 44.261,42.841 44.069,43.286 44.414,43.286  " fill="#fc6c22" data-fill-palette-color="accent"></polygon><polygon points="43.583,46.791 43.583,48.125 44.479,47.229 44.207,46.544  " fill="#fc6c22" data-fill-palette-color="accent"></polygon><polygon points="46.418,42.615 46.418,41.281 45.521,42.178 45.794,42.863  " fill="#fc6c22" data-fill-palette-color="accent"></polygon><polygon points="44.038,46.119 44.207,46.544 44.658,46.364 44.413,46.119  " fill="#fc6c22" data-fill-palette-color="accent"></polygon><polygon points="45.962,43.286 45.794,42.863 45.343,43.042 45.587,43.286  " fill="#fc6c22" data-fill-palette-color="accent"></polygon><polygon points="44.658,46.364 45.001,46.707 45.323,46.386 44.979,46.237  " fill="#fc6c22" data-fill-palette-color="accent"></polygon><polygon points="45.343,43.042 45,42.699 44.679,43.021 45.023,43.169  " fill="#fc6c22" data-fill-palette-color="accent"></polygon><polygon points="44.979,46.237 45.274,46.119 44.707,46.119  " fill="#fc6c22" data-fill-palette-color="accent"></polygon><polygon points="45.023,43.169 44.729,43.286 45.293,43.286  " fill="#fc6c22" data-fill-palette-color="accent"></polygon><polygon points="44.069,43.286 43.583,43.286 43.583,43.741 43.932,43.603  " fill="#fc6c22" data-fill-palette-color="accent"></polygon><polygon points="45.933,46.119 46.418,46.119 46.418,45.666 46.069,45.804  " fill="#fc6c22" data-fill-palette-color="accent"></polygon><polygon points="46.069,45.804 46.194,45.514 45.796,45.913  " fill="#fc6c22" data-fill-palette-color="accent"></polygon><polygon points="43.932,43.603 43.807,43.893 44.205,43.494  " fill="#fc6c22" data-fill-palette-color="accent"></polygon><polygon points="43.583,45.635 43.583,46.119 44.038,46.119 43.899,45.771  " fill="#fc6c22" data-fill-palette-color="accent"></polygon><polygon points="46.418,43.771 46.418,43.286 45.962,43.286 46.1,43.634  " fill="#fc6c22" data-fill-palette-color="accent"></polygon><polygon points="43.899,45.771 44.19,45.896 43.791,45.497  " fill="#fc6c22" data-fill-palette-color="accent"></polygon><polygon points="46.1,43.634 45.81,43.509 46.209,43.908  " fill="#fc6c22" data-fill-palette-color="accent"></polygon><polygon points="46.418,45.29 46.418,44.996 46.194,45.514  " fill="#fc6c22" data-fill-palette-color="accent"></polygon><polygon points="43.583,44.116 43.583,44.41 43.807,43.893  " fill="#fc6c22" data-fill-palette-color="accent"></polygon><polygon points="45.587,43.286 45.293,43.286 45.81,43.509  " fill="#fc6c22" data-fill-palette-color="accent"></polygon><polygon points="44.413,46.119 44.707,46.119 44.19,45.896  " fill="#fc6c22" data-fill-palette-color="accent"></polygon><polygon points="45.589,46.119 45.796,45.913 45.274,46.119  " fill="#fc6c22" data-fill-palette-color="accent"></polygon><polygon points="44.414,43.286 44.205,43.494 44.729,43.286  " fill="#fc6c22" data-fill-palette-color="accent"></polygon><polygon points="43.583,45.29 43.791,45.497 43.583,44.976  " fill="#fc6c22" data-fill-palette-color="accent"></polygon><polygon points="46.418,44.117 46.209,43.908 46.418,44.435  " fill="#fc6c22" data-fill-palette-color="accent"></polygon></g></svg></g></svg></g><g></g></svg></g></svg></g></svg></g><defs></defs></svg><rect width="320" height="360" fill="none" stroke="none" visibility="hidden"></rect></g></svg></g></svg>